<svg width="512" height="89" viewBox="0 0 512 89" fill="none" xmlns="http://www.w3.org/2000/svg">
<path d="M426.12 5.35449H449.759L467.622 57.8733H467.836L484.736 5.35449H508.375V81.7261H492.651V27.6028H492.437L473.719 81.7261H460.776L442.058 28.1376H441.844V81.7261H426.12V5.35449Z" fill="white"/>
<path d="M366.802 52.2043H386.59L376.963 24.18H376.749L366.802 52.2043ZM368.406 5.35449H385.627L414.187 81.7261H396.752L390.976 64.719H362.416L356.427 81.7261H339.526L368.406 5.35449Z" fill="white"/>
<path d="M272.845 5.35449H329.963V19.4736H289.638V35.839H326.647V48.8885H289.638V67.607H330.819V81.7261H272.845V5.35449Z" fill="white"/>
<path d="M219.008 19.4736H196.118V5.35449H258.692V19.4736H235.801V81.7261H219.008V19.4736Z" fill="white"/>
<path d="M484.738 5.34616L467.842 57.8702H467.624L449.762 5.34616H426.121V81.721H441.85V28.135H442.059L460.783 81.721H473.718L492.441 27.5953H492.65V81.721H508.38V5.34616H484.738ZM511.052 84.3933H489.978V42.8894L476.251 82.5914L475.624 84.3933H458.876L458.258 82.6001L444.522 43.2811V84.3933H423.448V2.67383H451.677L452.296 4.4844L467.659 49.6704L482.196 4.52792L482.788 2.67383H511.052V84.3933Z" fill="white"/>
<path d="M387.48 2.67383L418.042 84.3933H394.836L394.217 82.5827L389.064 67.3844H364.317L358.955 82.6088L358.319 84.3933H335.661L365.91 4.40606L366.563 2.67383H387.48ZM368.408 5.34616L339.526 81.721H356.43L362.419 64.712H390.979L396.751 81.721H414.186L385.626 5.34616H368.408ZM376.965 24.1744L386.592 52.2034H366.806L376.747 24.1744H376.965ZM370.593 49.5224H382.84L376.817 31.9738L370.593 49.5224Z" fill="white"/>
<path d="M272.842 5.34616V81.721H330.824V67.602H289.642V48.8869H326.646V35.8299H289.642V19.4651H329.962V5.34616H272.842ZM332.635 22.1462H292.315V33.1576H329.327V51.5593H292.315V64.9297H333.496V84.3933H270.17V2.67383H332.635V22.1462Z" fill="white"/>
<path d="M196.118 5.34616V19.4651H219.011V81.721H235.802V19.4651H258.687V5.34616H196.118ZM261.368 22.1462H238.475V84.3933H216.33V22.1462H193.445V2.67383H261.368V22.1462Z" fill="white"/>
<path d="M106.13 1.33691L106.521 1.97559L107.304 3.25391L118.911 22.165L130.985 3.2002L131.765 1.96191L132.158 1.33691H160.292L158.893 3.41895L133.096 41.8291L161.019 83.6504L162.407 85.7305H132.689L132.296 85.1055L131.514 83.8623L118.183 62.7588L104.581 83.8896V83.8906L103.788 85.1182L103.394 85.7305H74.8906L76.2734 83.6523L104.18 41.7285L78.2725 3.42285L76.8613 1.33691H106.13Z" stroke="#FFFF00" stroke-width="2.67408"/>
<path d="M26.1465 1.33691V52.8389C26.1465 53.7481 26.1926 54.6547 26.2715 55.5566L26.626 58.2568C26.8788 59.6537 27.3894 60.8435 28.1377 61.8848C28.8343 62.788 29.8613 63.6474 31.3604 64.4062C32.7226 64.9943 34.82 65.4111 37.8662 65.4111C43.4394 65.4106 46.0701 64.148 47.2051 62.8613C48.5989 61.1979 49.6826 58.1238 49.6826 52.8389V1.33691H74.501V52.8682L74.457 54.8701V54.8896C74.0918 64.9973 70.9664 73.2314 64.5166 78.9141L64.4824 78.9492L64.4463 78.9805C57.7282 84.7861 48.6984 87.4446 37.8672 87.4453C27.5952 87.4453 18.9609 85.1168 12.4268 80.0156L12.4141 80.0049L12.4014 79.9951L11.1826 78.9941L10.9629 78.8135L10.9365 78.7607C4.29526 72.7504 1.33691 63.8282 1.33691 52.8389V1.33691H26.1465Z" stroke="#FFFF00" stroke-width="2.67408"/>
</svg>
