<svg width="126" height="37" viewBox="0 0 126 37" fill="none" xmlns="http://www.w3.org/2000/svg">
<path d="M70.1469 31.0536C70.0466 31.0234 69.9325 30.8351 69.9366 30.7128L74.3983 6.17452L82.1041 6.18001L86.2222 20.4746L90.2235 6.03711L97.7727 6.17727L102.232 31.055H95.2925L93.2987 16.9033L89.3881 30.9217C89.2878 31.0756 89.1298 31.044 88.98 31.0632C88.374 31.1388 83.2501 31.1429 82.9931 30.989L78.9424 16.9006L76.8812 31.055H70.1482L70.1469 31.0536Z" fill="white"/>
<path d="M3.36649 0L18.1997 14.8469L18.6092 14.9871L33.5962 0H36.7566L36.9627 0.206112V3.5039L21.9949 18.5006L36.9627 33.5962V36.7566L36.7566 36.9627H33.4588L18.4814 22.1172L3.5039 36.9627H0V33.4588C4.35858 28.8309 9.1816 24.6111 13.5553 20.0135C13.749 19.8101 14.8442 18.6037 14.8456 18.4814L0 3.5039V0.206112L0.206112 0H3.36649Z" fill="white"/>
<path d="M51.4588 6.04492L57.5721 22.8087L63.3446 6.04492H70.7647L61.4305 30.8567C61.3096 31.0339 61.1351 31.0353 60.9469 31.06C58.8335 31.3431 56.1073 30.8292 53.9253 31.0614L53.52 30.9171L44.168 6.32523L44.315 6.04492H51.4602H51.4588Z" fill="white"/>
<path d="M112.812 24.595H125.247L125.398 24.8794C124.555 26.6547 124.098 28.9659 123.223 30.678C123.146 30.8292 123.045 30.9487 122.911 31.0532H106.148L105.941 30.8471V6.25103L106.148 6.04492H112.606L112.812 6.25103V24.595Z" fill="white"/>
<path d="M14.6345 0L18.1617 3.5465L18.765 3.44207L22.1919 0H28.1692L18.4627 9.88375L8.65723 0H14.6345Z" fill="white"/>
<path d="M36.9629 8.79395V14.7712L33.2872 18.4798L36.9629 22.3286V28.3059L27.0791 18.5994L36.9629 8.79395Z" fill="white"/>
<path d="M8.65723 36.9621L18.6083 27.1992L28.1692 36.9621H22.0545L18.4627 33.3991L14.7719 36.9621H8.65723Z" fill="white"/>
<path d="M0 8.79395L9.74085 18.5994L0 28.3059V22.1912L3.56299 18.5994L0 14.9086V8.79395Z" fill="white"/>
</svg>
